<?xml version="1.0" encoding="UTF-8"?>
<svg xmlns="http://www.w3.org/2000/svg" viewBox="0 0 1024 1024" width="1024" height="1024">
<path d="M317.73 257.27C323.51 255.84 330.56 256.88 336.5 256.87C349.17 256.86 361.83 256.86 374.5 256.86C380.68 256.86 389.09 255.47 393.45 261.07C396.19 264.6 395.8 269.31 395.83 273.5C395.86 281.17 395.84 288.83 395.82 296.5C395.79 304.04 397.98 319.64 393.02 325.5C388.71 330.6 380.42 329.07 374.5 329.06C359.83 329.03 345.17 329.08 330.5 329.07C324.52 329.06 317.45 330.31 312.86 325.63C307.63 320.3 309.89 302.96 309.9 295.5C309.9 287.5 309.91 279.5 309.9 271.5C309.9 265.49 310.76 258.98 317.73 257.27ZM318.61 368.21C324.61 367.11 331.41 367.93 337.5 367.93C349.5 367.94 361.5 367.93 373.5 367.94C379.72 367.95 388.36 366.27 393.01 371.51C396.98 375.98 395.84 382.99 395.85 388.5C395.86 402.17 395.83 415.83 395.85 429.5C395.92 483.83 395.71 538.17 395.82 592.5C395.9 627.83 395.74 663.17 395.82 698.5C395.83 705.22 397.32 720.58 394.81 726.28C393.44 729.36 389.69 731.55 386.48 732.02C380.74 732.86 374.31 732.08 368.5 732.08C356.5 732.08 344.5 732.11 332.5 732.09C326.18 732.08 317.7 733.72 312.92 728.57C308.38 723.67 309.9 715.63 309.9 709.5C309.9 694.17 309.88 678.83 309.9 663.5C310.01 602.5 309.84 541.5 309.9 480.5C309.93 452.17 309.91 423.83 309.91 395.5C309.91 386.87 306.67 370.4 318.61 368.21ZM534.26 633.03C529.42 628.05 524.58 623.08 519.74 618.1C518.96 615.84 517.2 614.24 514.91 613.31C508.77 609.6 500.57 599.67 495.31 594.19C484.22 582.64 472.51 571.62 461.15 560.31C456.99 556.16 445.92 543.39 441.12 542.01C441.44 535.34 448.27 535.71 453.5 535.71C466.17 535.7 478.83 535.69 491.5 535.7C522.5 535.75 553.5 535.73 584.5 535.75C606.65 535.75 625.92 536.75 637.47 514.01C648.27 492.75 636.73 466.02 614.25 458.32C602.22 454.2 588.04 456.1 575.5 456.1C543.17 456.1 510.83 456.11 478.5 456.1C470.5 456.1 462.5 456.1 454.5 456.09C450.63 456.08 446.79 456.55 443.74 453.72C438.78 449.13 440.63 439.58 440.64 433.5C440.66 420.5 440.66 407.5 440.63 394.5C440.62 388.27 439.46 380.6 441.08 374.56C443.01 367.35 451.76 367.95 457.5 367.94C473.5 367.91 489.5 367.94 505.5 367.92C528.17 367.9 550.83 367.91 573.5 367.92C594.9 367.94 615.63 367.69 636.39 373.15C656.36 378.4 673.88 389.84 689.44 403.03C730.35 437.68 744.48 502.37 723.9 551.34C711.78 580.19 690.12 604.31 662.35 618.88C636.36 632.52 613.09 633.02 584.5 633.09C567.75 633.13 551 632.86 534.26 633.03ZM485 731.87C474.67 731.87 464.33 731.86 454 731.85C464.33 731.86 474.67 731.87 485 731.87ZM616.15 731.86C572.77 731.86 529.38 731.87 486 731.87C529.38 731.87 572.77 731.86 616.15 731.86Z" fill="#5565e4" fill-rule="evenodd" stroke="#5565e4" stroke-width="0.25" stroke-linejoin="round"/>
<path d="M441.12 542.01C445.92 543.39 456.99 556.16 461.15 560.31C472.51 571.62 484.22 582.64 495.31 594.19C500.57 599.67 508.77 609.6 514.91 613.31C516.52 614.9 518.13 616.5 519.74 618.1C524.58 623.08 529.42 628.05 534.26 633.03C535.59 634.84 537.86 636.22 539.57 637.93C544.23 642.61 548.91 647.26 553.55 651.95C570.62 669.2 588.08 686.11 604.81 703.68C610.17 709.31 615.63 714.87 621.13 720.37C624.32 723.56 627.77 725.82 628.1 730.5C624.81 732.97 620.13 732.3 616.15 731.86C572.77 731.86 529.38 731.87 486 731.87C485.67 731.87 485.33 731.87 485 731.87C474.67 731.87 464.33 731.86 454 731.85C449.7 732.32 443.87 732.46 441.53 727.85C439.93 724.68 440.73 719.94 440.73 716.5C440.74 707.5 440.75 698.5 440.75 689.5C440.75 657.83 440.87 626.17 440.75 594.5C440.71 583.5 440.77 572.5 440.73 561.5C440.72 555.09 440.13 548.33 441.12 542.01Z" fill="#879dff" fill-rule="evenodd" stroke="#879dff" stroke-width="0.25" stroke-linejoin="round"/>
<path d="M514.91 613.31C517.2 614.24 518.96 615.84 519.74 618.1C518.13 616.5 516.52 614.9 514.91 613.31Z" fill="#424fcb" fill-rule="evenodd" stroke="#424fcb" stroke-width="0.25" stroke-linejoin="round"/>
</svg>
